# xmcd
#
# Track frame offsets: 
#        150
#        19053
#        41595
#        59076
#        74436
#        87611
#        106500
#        128152
#        142310
#        158772
#        176954
#        196734
#        218584
#        237464
#        247569
#        262961
#
# Disc length: 3641 seconds
#
# Revision: 0
# Processed by: cddbd v1.5.2PL0 Copyright (c) Steve Scherf et al.
# Submitted via: ExactAudioCopyFreeDBPlugin 1.0
#
DISCID=e30e3710
DTITLE=Various Artist - Country Faith Christmas - Cracker Barrel Spec
DTITLE=ial Edition
DYEAR=2015
DGENRE=Country
TTITLE0=Carrie Underwood - Do You Hear What I Hear
TTITLE1=Brad Paisley - Born On Christmas Day
TTITLE2=Rascal Flatts - God Rest Ye Merry Gentlemen
TTITLE3=Martina McBride - Silent Night
TTITLE4=Hunter Hayes - Go Tell It On The Mountain
TTITLE5=Alan Jackson - Let It Be Christmas
TTITLE6=Sara Evans - O Come All Ye Faithful
TTITLE7=Gloriana - O Holy Night
TTITLE8=Trace Adkins - What Child Is This?
TTITLE9=Lonestar - Reason For The Season
TTITLE10=Dolly Parton - Joy To The World 
TTITLE11=Clay Walker - Mary Did You Know
TTITLE12=Travis Tritt - I Heard The Bells on Christmas Day
TTITLE13=Johnny Cash - Reading of Luke 2:1-18 (NKJV)
TTITLE14=Randy Travis - Angels We Have Heard On High (Bonus Track) 
TTITLE15=Diamond Rio - Hark! The Herald Angels Sing (Bonus Track) 
EXTD=
EXTT0=
EXTT1=
EXTT2=
EXTT3=
EXTT4=
EXTT5=
EXTT6=
EXTT7=
EXTT8=
EXTT9=
EXTT10=
EXTT11=
EXTT12=
EXTT13=
EXTT14=
EXTT15=
PLAYORDER=
